<svg xmlns="http://www.w3.org/2000/svg" xmlns:xlink="http://www.w3.org/1999/xlink" viewBox="0 0 180.43 131.06"><defs><style>.cls-1{fill:url(#linear-gradient);}.cls-2{fill:url(#linear-gradient-2);}.cls-3{fill:url(#linear-gradient-3);}.cls-4{fill:url(#linear-gradient-4);}</style><linearGradient id="linear-gradient" x1="209.68" y1="47.41" x2="-38.92" y2="47.41" gradientUnits="userSpaceOnUse"><stop offset="0" stop-color="#808184"/><stop offset="0.01" stop-color="#828386"/><stop offset="0.11" stop-color="#9b9c9f"/><stop offset="0.22" stop-color="#adafb1"/><stop offset="0.34" stop-color="#b8b9bc"/><stop offset="0.46" stop-color="#bbbdbf"/><stop offset="0.61" stop-color="#b7b9bb"/><stop offset="0.74" stop-color="#acaeb0"/><stop offset="0.87" stop-color="#9a9b9e"/><stop offset="1" stop-color="#808184"/></linearGradient><linearGradient id="linear-gradient-2" x1="198.83" y1="-0.13" x2="-12.37" y2="24.34" gradientUnits="userSpaceOnUse"><stop offset="0" stop-color="#808184"/><stop offset="0.01" stop-color="#828386"/><stop offset="0.12" stop-color="#9b9c9f"/><stop offset="0.23" stop-color="#adafb1"/><stop offset="0.35" stop-color="#b8b9bc"/><stop offset="0.49" stop-color="#bbbdbf"/><stop offset="0.62" stop-color="#b7b9bb"/><stop offset="0.75" stop-color="#acaeb0"/><stop offset="0.88" stop-color="#9a9b9e"/><stop offset="1" stop-color="#808184"/></linearGradient><linearGradient id="linear-gradient-3" x1="201.55" y1="84.78" x2="-26.91" y2="82.72" xlink:href="#linear-gradient"/><linearGradient id="linear-gradient-4" x1="-16.8" y1="111.08" x2="202.3" y2="131.79" xlink:href="#linear-gradient-2"/></defs><g id="Layer_2" data-name="Layer 2"><g id="Layer_1-2" data-name="Layer 1"><path class="cls-1" d="M174,44.25c-4,0-10.59-1.23-18.18-2.65-20.29-3.79-50.95-9.53-80.84-.7C38.18,51.78,9.2,41,8.72,40.77A6.39,6.39,0,0,0,4.06,52.68c.9.36,15.42,5.91,37.31,5.91a131.48,131.48,0,0,0,37.26-5.42c26.94-8,54.64-2.78,74.87,1C162.05,55.77,168.81,57,174,57a6.4,6.4,0,1,0,0-12.79Z"/><path class="cls-2" d="M4.06,16.45c.9.35,15.42,5.9,37.31,5.9a131.48,131.48,0,0,0,37.26-5.42c26.94-8,54.64-2.78,74.87,1,8.55,1.6,15.31,2.86,20.53,2.86A6.4,6.4,0,1,0,174,8c-4,0-10.59-1.22-18.18-2.64C135.56,1.57,104.9-4.17,75,4.66,38.18,15.54,9.2,4.72,8.72,4.54A6.39,6.39,0,0,0,4.06,16.45Z"/><path class="cls-3" d="M174,80.48c-4,0-10.59-1.22-18.18-2.64C135.56,74,104.9,68.3,75,77.13,38.18,88,9.2,77.19,8.72,77A6.39,6.39,0,0,0,4.06,88.92c.9.35,15.42,5.9,37.31,5.9A131.48,131.48,0,0,0,78.63,89.4c26.94-8,54.64-2.78,74.87,1,8.55,1.6,15.31,2.86,20.53,2.86a6.4,6.4,0,1,0,0-12.79Z"/><path class="cls-4" d="M174,116.72c-4,0-10.59-1.23-18.18-2.65-20.29-3.79-50.95-9.53-80.84-.7-36.83,10.88-65.81.06-66.29-.13a6.4,6.4,0,0,0-4.66,11.92c.9.35,15.42,5.9,37.31,5.9a131.48,131.48,0,0,0,37.26-5.42c26.94-8,54.64-2.78,74.87,1,8.55,1.61,15.31,2.87,20.53,2.87a6.4,6.4,0,1,0,0-12.79Z"/></g></g></svg>