<svg xmlns="http://www.w3.org/2000/svg" xmlns:xlink="http://www.w3.org/1999/xlink" viewBox="0 0 199.47 214.55"><defs><style>.cls-1{fill:url(#radial-gradient);}.cls-2{fill:url(#linear-gradient);}.cls-3{fill:url(#linear-gradient-2);}.cls-4{fill:url(#linear-gradient-3);}.cls-5{fill:url(#linear-gradient-4);}.cls-6{fill:url(#linear-gradient-5);}.cls-7{fill:url(#linear-gradient-6);}.cls-8{fill:url(#linear-gradient-7);}.cls-9{fill:url(#linear-gradient-8);}.cls-10{fill:url(#linear-gradient-9);}.cls-11{fill:url(#linear-gradient-10);}.cls-12{fill:url(#linear-gradient-11);}.cls-13{fill:url(#linear-gradient-12);}.cls-14{fill:url(#linear-gradient-13);}.cls-15{fill:url(#linear-gradient-14);}.cls-16{fill:url(#linear-gradient-15);}.cls-17{fill:url(#linear-gradient-16);}</style><radialGradient id="radial-gradient" cx="137.66" cy="45.06" r="65.8" gradientUnits="userSpaceOnUse"><stop offset="0" stop-color="#faaf40"/><stop offset="0.42" stop-color="#fbb540"/><stop offset="0.98" stop-color="#ffc540"/><stop offset="1" stop-color="#ffc640"/></radialGradient><linearGradient id="linear-gradient" x1="101.42" y1="-0.45" x2="98.03" y2="225.18" gradientUnits="userSpaceOnUse"><stop offset="0" stop-color="#fff"/><stop offset="0.29" stop-color="#fdfdfd"/><stop offset="0.39" stop-color="#f6f6f6"/><stop offset="0.47" stop-color="#ebebeb"/><stop offset="0.52" stop-color="#dadada"/><stop offset="0.58" stop-color="#c4c4c4"/><stop offset="0.62" stop-color="#a8a8a8"/><stop offset="0.66" stop-color="#888"/><stop offset="0.7" stop-color="#626262"/><stop offset="0.74" stop-color="#373737"/><stop offset="0.77" stop-color="#090909"/><stop offset="0.77"/></linearGradient><linearGradient id="linear-gradient-2" x1="57.71" y1="164.73" x2="52.79" y2="184.59" gradientTransform="translate(66.42 -5.18) rotate(29.25)" gradientUnits="userSpaceOnUse"><stop offset="0" stop-color="#26a9e0" stop-opacity="0.5"/><stop offset="1" stop-color="#00adee"/></linearGradient><linearGradient id="linear-gradient-3" x1="60.97" y1="142.16" x2="51.73" y2="179.46" gradientTransform="translate(66.42 -5.18) rotate(29.25)" gradientUnits="userSpaceOnUse"><stop offset="0" stop-color="#26a9e0" stop-opacity="0.5"/><stop offset="0.17" stop-color="#25a9e0" stop-opacity="0.52"/><stop offset="0.35" stop-color="#21aae2" stop-opacity="0.57"/><stop offset="0.53" stop-color="#1baae4" stop-opacity="0.65"/><stop offset="0.72" stop-color="#12abe7" stop-opacity="0.77"/><stop offset="0.91" stop-color="#06acec" stop-opacity="0.92"/><stop offset="1" stop-color="#00adee"/></linearGradient><linearGradient id="linear-gradient-4" x1="56.58" y1="141.07" x2="53.96" y2="151.63" xlink:href="#linear-gradient-2"/><linearGradient id="linear-gradient-5" x1="89.41" y1="184.85" x2="84.49" y2="204.7" xlink:href="#linear-gradient-2"/><linearGradient id="linear-gradient-6" x1="92.67" y1="162.27" x2="83.43" y2="199.57" xlink:href="#linear-gradient-3"/><linearGradient id="linear-gradient-7" x1="88.27" y1="161.18" x2="85.74" y2="171.4" xlink:href="#linear-gradient-2"/><linearGradient id="linear-gradient-8" x1="104.91" y1="140.89" x2="99.99" y2="160.74" xlink:href="#linear-gradient-2"/><linearGradient id="linear-gradient-9" x1="108.17" y1="118.32" x2="98.93" y2="155.62" xlink:href="#linear-gradient-3"/><linearGradient id="linear-gradient-10" x1="103.78" y1="117.22" x2="101.16" y2="127.79" xlink:href="#linear-gradient-2"/><linearGradient id="linear-gradient-11" x1="138.16" y1="164.39" x2="133.25" y2="184.24" xlink:href="#linear-gradient-2"/><linearGradient id="linear-gradient-12" x1="141.43" y1="141.81" x2="132.19" y2="179.11" xlink:href="#linear-gradient-3"/><linearGradient id="linear-gradient-13" x1="137.03" y1="140.72" x2="134.4" y2="151.34" xlink:href="#linear-gradient-2"/><linearGradient id="linear-gradient-14" x1="152.11" y1="117.05" x2="147.19" y2="136.9" xlink:href="#linear-gradient-2"/><linearGradient id="linear-gradient-15" x1="155.37" y1="94.47" x2="146.13" y2="131.77" xlink:href="#linear-gradient-3"/><linearGradient id="linear-gradient-16" x1="150.97" y1="93.38" x2="148.35" y2="104" xlink:href="#linear-gradient-2"/></defs><g id="Layer_2" data-name="Layer 2"><g id="Layer_1-2" data-name="Layer 1"><path class="cls-1" d="M107.59,73.85c9.48-43.65,64.79-22,49.88,16.26,12.06-6.33,22-5.49,29.11-1A58.56,58.56,0,1,0,80.1,43.38C89.45,48.4,98.93,58,107.59,73.85Z"/><path class="cls-2" d="M186.58,89.16c-7.15-4.54-17.05-5.38-29.11,1,14.91-38.22-40.4-59.91-49.88-16.26C98.93,58,89.45,48.4,80.1,43.38,46.71,25.44,15.11,65.46,29.51,82c-43.1,2.44-34.16,55.3-4.06,54.49,0,0,111.14,3,151,1.9C205.21,137.59,205.16,100.92,186.58,89.16Z"/><polygon class="cls-3" points="29.3 174.22 29.3 174.21 29.3 174.21 29.3 174.22"/><path class="cls-4" d="M44.26,159.53a70,70,0,0,0-1.17-10A72.91,72.91,0,0,0,34,153.79c-5.26,3-15.81,13.34-4.7,20.42C41.15,180,44.46,165.58,44.26,159.53Z"/><polygon class="cls-5" points="43.09 149.57 43.09 149.57 43.1 149.57 43.09 149.57"/><polygon class="cls-6" points="47.13 207.25 47.13 207.25 47.12 207.25 47.13 207.25"/><path class="cls-7" d="M60.92,182.61a70.43,70.43,0,0,0-9.09,4.21c-5.26,3-15.81,13.34-4.7,20.43,11.85,5.77,15.16-8.64,15-14.68A69.52,69.52,0,0,0,60.92,182.61Z"/><polygon class="cls-8" points="60.92 182.61 60.92 182.61 60.92 182.61 60.92 182.61"/><polygon class="cls-9" points="82.13 176.47 82.13 176.47 82.13 176.47 82.13 176.47"/><path class="cls-10" d="M97.09,161.78a69.5,69.5,0,0,0-1.17-9.95A70.43,70.43,0,0,0,86.83,156c-5.26,3-15.81,13.34-4.7,20.43C94,182.24,97.29,167.83,97.09,161.78Z"/><polygon class="cls-11" points="95.92 151.83 95.92 151.83 95.93 151.83 95.92 151.83"/><polygon class="cls-12" points="99.67 213.22 99.67 213.22 99.66 213.21 99.67 213.22"/><path class="cls-13" d="M113.46,188.58a70.43,70.43,0,0,0-9.09,4.21c-5.26,3-15.81,13.34-4.7,20.43,11.85,5.77,15.16-8.64,15-14.69A69.5,69.5,0,0,0,113.46,188.58Z"/><polygon class="cls-14" points="113.46 188.58 113.46 188.58 113.46 188.58 113.46 188.58"/><polygon class="cls-15" points="134.96 178.73 134.96 178.72 134.96 178.72 134.96 178.73"/><path class="cls-16" d="M148.76,154.09a69.56,69.56,0,0,0-9.1,4.21c-5.26,3-15.81,13.34-4.7,20.42,11.85,5.77,15.16-8.63,15-14.68A72,72,0,0,0,148.76,154.09Z"/><polygon class="cls-17" points="148.75 154.09 148.75 154.09 148.76 154.09 148.75 154.09"/></g></g></svg>