<svg xmlns="http://www.w3.org/2000/svg" viewBox="0 0 191.07 69.39"><defs><style>.cls-1{opacity:0.75;}.cls-2{fill:#808184;}</style></defs><g id="Layer_2" data-name="Layer 2"><g id="Layer_1-2" data-name="Layer 1"><g class="cls-1"><path class="cls-2" d="M5.8,32.39.06,3.55A2,2,0,0,1,.5,1.73,2.15,2.15,0,0,1,2.21.93h2.7a3,3,0,0,1,2,.75,2.81,2.81,0,0,1,1,1.87l3.18,23.33s0,.05,0,.05.05,0,.05-.05L14.1,3.55a3,3,0,0,1,1-1.87,2.84,2.84,0,0,1,2-.75h4.38a2.84,2.84,0,0,1,2,.75,2.89,2.89,0,0,1,1,1.87l2.9,23.33s0,.05,0,.05a0,0,0,0,0,.05-.05L30.53,3.55a2.82,2.82,0,0,1,1-1.87,3,3,0,0,1,2-.75h2.52a2.09,2.09,0,0,1,1.68.8,2.13,2.13,0,0,1,.46,1.82L32.49,32.39a3.18,3.18,0,0,1-1.12,1.86,3.07,3.07,0,0,1-2.05.75h-4a2.93,2.93,0,0,1-2-.75,2.88,2.88,0,0,1-1-1.86L19.19,9.05s0,0,0,0,0,0,0,0L15.93,32.39a3,3,0,0,1-3,2.61H9a3.14,3.14,0,0,1-2.07-.75A3,3,0,0,1,5.8,32.39Z"/><path class="cls-2" d="M52.09,35.47q-6.35,0-9.77-3.22t-3.43-9.38q0-6.12,3.06-9.36t8.84-3.24q11.1,0,11.29,12.13a2.44,2.44,0,0,1-.86,1.89,2.93,2.93,0,0,1-2,.77H46.78c-.31,0-.44.14-.38.42a5,5,0,0,0,2,3.66,8.61,8.61,0,0,0,4.82,1.1,18.45,18.45,0,0,0,4.53-.61,2,2,0,0,1,1.75.38,1.92,1.92,0,0,1,.77,1.58v.1a3.46,3.46,0,0,1-.72,2.12A2.83,2.83,0,0,1,57.7,35,29.49,29.49,0,0,1,52.09,35.47ZM50.93,15.35a4.24,4.24,0,0,0-3.17,1.1,6.25,6.25,0,0,0-1.36,3.76c0,.24.11.37.33.37h7.89a.37.37,0,0,0,.42-.42C54.91,17,53.54,15.35,50.93,15.35Z"/><path class="cls-2" d="M73.05,35.47a7.15,7.15,0,0,1-5.3-2.08A7.3,7.3,0,0,1,65.67,28q0-8.49,12.61-8.49H80c.29,0,.43-.13.43-.38V18.9a3.24,3.24,0,0,0-.92-2.57,4.67,4.67,0,0,0-3-.79,32.15,32.15,0,0,0-6.82.89A2.11,2.11,0,0,1,67.84,16a2,2,0,0,1-.77-1.59v-.09a3.48,3.48,0,0,1,.73-2.13,2.84,2.84,0,0,1,1.84-1.14,38,38,0,0,1,7.09-.79q6.12,0,8.66,2.19c1.7,1.46,2.54,3.89,2.54,7.28v12.6a2.55,2.55,0,0,1-.79,1.87,2.59,2.59,0,0,1-1.87.79H83.55a2.75,2.75,0,0,1-2.76-2.66v-.51s0,0,0,0-.1,0-.1,0A9.34,9.34,0,0,1,73.05,35.47Zm5.23-11.58q-5.7,0-5.7,3.5a2.65,2.65,0,0,0,.75,2,2.74,2.74,0,0,0,2,.72A4.86,4.86,0,0,0,79,28.68a5.17,5.17,0,0,0,1.41-3.8v-.57a.37.37,0,0,0-.43-.42Z"/><path class="cls-2" d="M94,16.94a2.6,2.6,0,0,1-1.86-.77,2.48,2.48,0,0,1-.8-1.84A2.72,2.72,0,0,1,94,11.67h1.87c.25,0,.37-.14.37-.42V5.46A2.56,2.56,0,0,1,97,3.59a2.54,2.54,0,0,1,1.86-.79h2.24a2.55,2.55,0,0,1,1.87.79,2.56,2.56,0,0,1,.8,1.87v5.79a.37.37,0,0,0,.41.42h4.58a2.47,2.47,0,0,1,1.84.79,2.61,2.61,0,0,1,.77,1.87,2.63,2.63,0,0,1-2.61,2.61h-4.58a.37.37,0,0,0-.41.42v8c0,2,.17,3.2.53,3.73s1.16.8,2.4.8a8.8,8.8,0,0,0,1.54-.1,2.42,2.42,0,0,1,1.83.47,1.92,1.92,0,0,1,.79,1.59v.37a3.07,3.07,0,0,1-.75,2,2.85,2.85,0,0,1-1.91,1,27.52,27.52,0,0,1-3.36.19q-4.77,0-6.7-2c-1.29-1.36-1.94-3.79-1.94-7.31V17.36c0-.28-.12-.42-.37-.42Z"/><path class="cls-2" d="M120.42,35a2.59,2.59,0,0,1-1.87-.79,2.56,2.56,0,0,1-.8-1.87V2.66a2.56,2.56,0,0,1,.8-1.87A2.59,2.59,0,0,1,120.42,0h2.24a2.58,2.58,0,0,1,1.86.79,2.56,2.56,0,0,1,.8,1.87V13.25s0,.05,0,.05a.16.16,0,0,0,.1-.05,10.21,10.21,0,0,1,7-3c2.86,0,4.91.81,6.16,2.45s1.86,4.55,1.86,8.75V32.34a2.55,2.55,0,0,1-.79,1.87,2.59,2.59,0,0,1-1.87.79h-2a2.59,2.59,0,0,1-1.87-.79,2.55,2.55,0,0,1-.79-1.87V22.4q0-3.73-.72-4.95a2.94,2.94,0,0,0-2.73-1.21,4.16,4.16,0,0,0-3,1.38,4.07,4.07,0,0,0-1.37,2.91V32.34A2.72,2.72,0,0,1,122.66,35Z"/><path class="cls-2" d="M158,35.47q-6.34,0-9.78-3.22t-3.42-9.38q0-6.12,3.05-9.36t8.84-3.24q11.12,0,11.3,12.13a2.44,2.44,0,0,1-.86,1.89,2.93,2.93,0,0,1-2,.77H152.66c-.31,0-.43.14-.37.42a5.05,5.05,0,0,0,2,3.66,8.62,8.62,0,0,0,4.83,1.1,18.51,18.51,0,0,0,4.53-.61,2,2,0,0,1,1.75.38,1.92,1.92,0,0,1,.77,1.58v.1a3.41,3.41,0,0,1-.73,2.12A2.78,2.78,0,0,1,163.58,35,29.31,29.31,0,0,1,158,35.47Zm-1.17-20.12a4.27,4.27,0,0,0-3.17,1.1,6.26,6.26,0,0,0-1.35,3.76c0,.24.11.37.32.37h7.89a.37.37,0,0,0,.42-.42C160.8,17,159.43,15.35,156.81,15.35Z"/><path class="cls-2" d="M175.34,35a2.51,2.51,0,0,1-1.84-.79,2.61,2.61,0,0,1-.77-1.87v-19a2.6,2.6,0,0,1,.77-1.86,2.48,2.48,0,0,1,1.84-.8h2.29a2.48,2.48,0,0,1,1.84.8,2.6,2.6,0,0,1,.77,1.86v2s0,.05,0,.05.09,0,.09-.05a11.38,11.38,0,0,1,8.07-4.52,2.06,2.06,0,0,1,1.85.65,2.67,2.67,0,0,1,.77,1.91v.38a2.6,2.6,0,0,1-.77,1.86,2.9,2.9,0,0,1-1.89.89,9.19,9.19,0,0,0-5.86,2.59,7.83,7.83,0,0,0-2.08,5.63v7.6a2.57,2.57,0,0,1-.77,1.87,2.49,2.49,0,0,1-1.84.79Z"/></g><g class="cls-1"><path class="cls-2" d="M38.61,69.11a1.51,1.51,0,0,1-1.11-.48A1.49,1.49,0,0,1,37,67.52V50.31a1.64,1.64,0,0,1,1.59-1.59h9.58a1.53,1.53,0,0,1,1.12.48,1.51,1.51,0,0,1,.48,1.11V51a1.51,1.51,0,0,1-.48,1.11,1.53,1.53,0,0,1-1.12.48H42c-.17,0-.25.07-.25.22v4.16a.22.22,0,0,0,.25.25h5.61a1.56,1.56,0,0,1,1.12.47,1.46,1.46,0,0,1,.48,1.1v.45a1.49,1.49,0,0,1-.48,1.1,1.59,1.59,0,0,1-1.12.46H42a.22.22,0,0,0-.25.25v6.51a1.51,1.51,0,0,1-.46,1.11,1.49,1.49,0,0,1-1.1.48Z"/><path class="cls-2" d="M64.5,67.4a7.13,7.13,0,0,1-5.39,2,7.15,7.15,0,0,1-5.39-2,7.64,7.64,0,0,1-1.92-5.55,7.67,7.67,0,0,1,1.92-5.56,7.18,7.18,0,0,1,5.39-2,7.16,7.16,0,0,1,5.39,2,7.63,7.63,0,0,1,1.93,5.56A7.6,7.6,0,0,1,64.5,67.4Zm-3.31-8.9a2.6,2.6,0,0,0-4.16,0,6.31,6.31,0,0,0-.68,3.35A6.33,6.33,0,0,0,57,65.2a2.62,2.62,0,0,0,4.16,0,6.23,6.23,0,0,0,.69-3.35A6.2,6.2,0,0,0,61.19,58.5Z"/><path class="cls-2" d="M70.7,69.11a1.49,1.49,0,0,1-1.1-.48,1.51,1.51,0,0,1-.46-1.11V56.18a1.55,1.55,0,0,1,.46-1.12,1.51,1.51,0,0,1,1.1-.47h1.37a1.52,1.52,0,0,1,1.11.47,1.58,1.58,0,0,1,.45,1.12v1.17a0,0,0,0,0,0,0s.06,0,.06,0a6.84,6.84,0,0,1,4.83-2.71,1.26,1.26,0,0,1,1.1.39,1.58,1.58,0,0,1,.46,1.15v.22a1.55,1.55,0,0,1-.46,1.12,1.7,1.7,0,0,1-1.13.53A5.49,5.49,0,0,0,75,59.6,4.67,4.67,0,0,0,73.78,63v4.55a1.52,1.52,0,0,1-.47,1.11,1.46,1.46,0,0,1-1.1.48Z"/><path class="cls-2" d="M89.61,69.39a8.21,8.21,0,0,1-5.85-1.93,7.32,7.32,0,0,1-2.05-5.61,7.85,7.85,0,0,1,1.83-5.6,6.9,6.9,0,0,1,5.29-1.94q6.65,0,6.76,7.26a1.44,1.44,0,0,1-.52,1.13,1.71,1.71,0,0,1-1.19.46H86.43c-.19,0-.26.09-.23.25a3,3,0,0,0,1.19,2.19,5.15,5.15,0,0,0,2.89.66A11.3,11.3,0,0,0,93,65.9a1.16,1.16,0,0,1,1.05.22,1.14,1.14,0,0,1,.46.95v.06a2.11,2.11,0,0,1-.43,1.27,1.69,1.69,0,0,1-1.11.68A17.47,17.47,0,0,1,89.61,69.39Zm-.7-12A2.51,2.51,0,0,0,87,58a3.81,3.81,0,0,0-.82,2.25c0,.14.07.22.2.22h4.72a.22.22,0,0,0,.25-.25Q91.26,57.35,88.91,57.35Z"/><path class="cls-2" d="M105.2,69.39a6.72,6.72,0,0,1-7.46-7.54,7.77,7.77,0,0,1,1.86-5.6,7,7,0,0,1,5.32-1.94,23.92,23.92,0,0,1,3,.25,1.74,1.74,0,0,1,1.13.63,1.81,1.81,0,0,1,.43,1.21v.28a1.13,1.13,0,0,1-.47,1,1.27,1.27,0,0,1-1.06.25,14.16,14.16,0,0,0-2.38-.19,2.81,2.81,0,0,0-2.36,1,5.23,5.23,0,0,0-.76,3.17,4.94,4.94,0,0,0,.82,3.2,3.22,3.22,0,0,0,2.58,1,11.81,11.81,0,0,0,2.35-.22A1.21,1.21,0,0,1,109.75,67v.28a1.89,1.89,0,0,1-.45,1.24,1.83,1.83,0,0,1-1.12.66A19.33,19.33,0,0,1,105.2,69.39Z"/><path class="cls-2" d="M117,69.39a4.28,4.28,0,0,1-3.17-1.24,4.37,4.37,0,0,1-1.24-3.23q0-5.09,7.54-5.08h1c.17,0,.25-.08.25-.23v-.14a1.94,1.94,0,0,0-.54-1.53,2.75,2.75,0,0,0-1.83-.48,19.34,19.34,0,0,0-4.08.53,1.24,1.24,0,0,1-1-.25,1.17,1.17,0,0,1-.46-1v0a2,2,0,0,1,.44-1.27,1.72,1.72,0,0,1,1.1-.69,23.34,23.34,0,0,1,4.24-.47q3.66,0,5.18,1.31c1,.88,1.53,2.33,1.53,4.36v7.54a1.49,1.49,0,0,1-.48,1.11,1.51,1.51,0,0,1-1.11.48h-1a1.6,1.6,0,0,1-1.14-.46,1.63,1.63,0,0,1-.51-1.13v-.31s0,0,0,0-.06,0-.06,0A5.59,5.59,0,0,1,117,69.39Zm3.13-6.93c-2.28,0-3.41.7-3.41,2.1a1.56,1.56,0,0,0,.45,1.18,1.62,1.62,0,0,0,1.2.44,3,3,0,0,0,2.18-.85,3.15,3.15,0,0,0,.83-2.28v-.34a.22.22,0,0,0-.25-.25Z"/><path class="cls-2" d="M134.38,63.52a8.76,8.76,0,0,1-4.31-1.73,4,4,0,0,1-1.3-3.1,3.77,3.77,0,0,1,1.55-3.22A7.71,7.71,0,0,1,135,54.31a23.49,23.49,0,0,1,3.78.31,1.72,1.72,0,0,1,1.1.64,1.86,1.86,0,0,1,.43,1.23v.13a1.13,1.13,0,0,1-.46,1,1.24,1.24,0,0,1-1.05.26,16.56,16.56,0,0,0-3.35-.37,3.35,3.35,0,0,0-1.6.28.93.93,0,0,0-.47.84c0,.71.56,1.17,1.68,1.4a9,9,0,0,1,4.45,1.67A4.25,4.25,0,0,1,140.78,65a3.82,3.82,0,0,1-1.57,3.25,7.58,7.58,0,0,1-4.55,1.16,19.6,19.6,0,0,1-4.13-.42,1.81,1.81,0,0,1-1.11-.71A2.09,2.09,0,0,1,129,67v-.22a1,1,0,0,1,.48-.91,1.23,1.23,0,0,1,1.06-.18,14.36,14.36,0,0,0,3.57.47q2.07,0,2.07-1.2a1.08,1.08,0,0,0-.38-.87A3.65,3.65,0,0,0,134.38,63.52Z"/><path class="cls-2" d="M144.38,58.3a1.55,1.55,0,0,1-1.12-.46,1.46,1.46,0,0,1-.47-1.1,1.6,1.6,0,0,1,1.59-1.59h1.12c.14,0,.22-.09.22-.26V51.43a1.6,1.6,0,0,1,1.59-1.59h1.34a1.6,1.6,0,0,1,1.59,1.59v3.46a.23.23,0,0,0,.25.26h2.74a1.45,1.45,0,0,1,1.1.47,1.56,1.56,0,0,1,.47,1.12,1.5,1.5,0,0,1-.47,1.1,1.47,1.47,0,0,1-1.1.46h-2.74a.22.22,0,0,0-.25.25v4.78a4.81,4.81,0,0,0,.32,2.23q.33.48,1.44.48a5.47,5.47,0,0,0,.92-.06,1.44,1.44,0,0,1,1.09.28,1.14,1.14,0,0,1,.48.95v.22a1.83,1.83,0,0,1-.45,1.23,1.71,1.71,0,0,1-1.14.62,16.94,16.94,0,0,1-2,.11c-1.89,0-3.23-.41-4-1.22s-1.16-2.26-1.16-4.37V58.55c0-.17-.08-.25-.22-.25Z"/></g></g></g></svg>